<svg xmlns="http://www.w3.org/2000/svg" viewBox="0 0 800 400">
  <defs>
    <linearGradient id="bg1" x1="0%" y1="0%" x2="100%" y2="100%">
      <stop offset="0%" style="stop-color:#6366f1;stop-opacity:1" />
      <stop offset="100%" style="stop-color:#8b5cf6;stop-opacity:1" />
    </linearGradient>
  </defs>
  <rect width="800" height="400" fill="url(#bg1)" rx="0"/>
  <!-- Browser window -->
  <rect x="140" y="60" width="520" height="300" rx="12" fill="#fff" opacity="0.95"/>
  <rect x="140" y="60" width="520" height="36" rx="12" fill="#f1f5f9"/>
  <rect x="140" y="84" width="520" height="12" fill="#f1f5f9"/>
  <circle cx="162" cy="78" r="6" fill="#f87171"/>
  <circle cx="180" cy="78" r="6" fill="#fbbf24"/>
  <circle cx="198" cy="78" r="6" fill="#34d399"/>
  <!-- URL bar -->
  <rect x="220" y="70" width="300" height="16" rx="8" fill="#e2e8f0"/>
  <!-- Product grid -->
  <rect x="165" y="110" width="150" height="120" rx="8" fill="#eef2ff"/>
  <rect x="175" y="120" width="130" height="70" rx="4" fill="#c7d2fe"/>
  <rect x="175" y="200" width="90" height="8" rx="4" fill="#a5b4fc"/>
  <rect x="175" y="214" width="60" height="8" rx="4" fill="#6366f1"/>
  <rect x="335" y="110" width="150" height="120" rx="8" fill="#eef2ff"/>
  <rect x="345" y="120" width="130" height="70" rx="4" fill="#c7d2fe"/>
  <rect x="345" y="200" width="90" height="8" rx="4" fill="#a5b4fc"/>
  <rect x="345" y="214" width="60" height="8" rx="4" fill="#6366f1"/>
  <rect x="505" y="110" width="130" height="120" rx="8" fill="#eef2ff"/>
  <rect x="515" y="120" width="110" height="70" rx="4" fill="#c7d2fe"/>
  <rect x="515" y="200" width="80" height="8" rx="4" fill="#a5b4fc"/>
  <rect x="515" y="214" width="50" height="8" rx="4" fill="#6366f1"/>
  <!-- Cart icon -->
  <rect x="560" y="250" width="70" height="30" rx="15" fill="#6366f1"/>
  <text x="595" y="270" text-anchor="middle" fill="#fff" font-size="12" font-family="sans-serif">Cart</text>
  <!-- Shopping bag icon -->
  <g transform="translate(380, 260)">
    <rect x="0" y="10" width="40" height="35" rx="4" fill="none" stroke="#6366f1" stroke-width="2.5"/>
    <path d="M10 10 C10 0, 30 0, 30 10" fill="none" stroke="#6366f1" stroke-width="2.5"/>
  </g>
  <!-- Price tags -->
  <rect x="165" y="250" width="50" height="20" rx="10" fill="#10b981"/>
  <text x="190" y="264" text-anchor="middle" fill="#fff" font-size="10" font-family="sans-serif">$49</text>
  <rect x="335" y="250" width="50" height="20" rx="10" fill="#10b981"/>
  <text x="360" y="264" text-anchor="middle" fill="#fff" font-size="10" font-family="sans-serif">$79</text>
  <!-- Floating elements -->
  <circle cx="100" cy="120" r="20" fill="#fff" opacity="0.15"/>
  <circle cx="720" cy="300" r="30" fill="#fff" opacity="0.1"/>
  <circle cx="700" cy="80" r="15" fill="#fff" opacity="0.12"/>
</svg>
