<svg xmlns="http://www.w3.org/2000/svg" viewBox="0 0 800 400">
  <defs>
    <linearGradient id="bg2" x1="0%" y1="0%" x2="100%" y2="100%">
      <stop offset="0%" style="stop-color:#0ea5e9;stop-opacity:1" />
      <stop offset="100%" style="stop-color:#6366f1;stop-opacity:1" />
    </linearGradient>
  </defs>
  <rect width="800" height="400" fill="url(#bg2)" rx="0"/>
  <!-- Kanban board -->
  <rect x="100" y="50" width="600" height="310" rx="12" fill="#fff" opacity="0.95"/>
  <!-- Header -->
  <rect x="100" y="50" width="600" height="40" rx="12" fill="#f8fafc"/>
  <rect x="100" y="78" width="600" height="12" fill="#f8fafc"/>
  <text x="130" y="76" fill="#334155" font-size="14" font-weight="bold" font-family="sans-serif">Task Board</text>
  <!-- Column: To Do -->
  <rect x="120" y="105" width="175" height="240" rx="8" fill="#f1f5f9"/>
  <text x="135" y="128" fill="#64748b" font-size="11" font-weight="600" font-family="sans-serif">TO DO</text>
  <circle cx="270" cy="123" r="10" fill="#e2e8f0"/>
  <text x="270" y="127" text-anchor="middle" fill="#64748b" font-size="9" font-family="sans-serif">3</text>
  <rect x="132" y="140" width="150" height="55" rx="6" fill="#fff"/>
  <rect x="144" y="152" width="90" height="6" rx="3" fill="#cbd5e1"/>
  <rect x="144" y="164" width="60" height="6" rx="3" fill="#e2e8f0"/>
  <rect x="144" y="180" width="30" height="12" rx="6" fill="#fef3c7"/>
  <text x="159" y="189" fill="#d97706" font-size="7" font-family="sans-serif">Med</text>
  <rect x="132" y="205" width="150" height="55" rx="6" fill="#fff"/>
  <rect x="144" y="217" width="100" height="6" rx="3" fill="#cbd5e1"/>
  <rect x="144" y="229" width="70" height="6" rx="3" fill="#e2e8f0"/>
  <rect x="144" y="245" width="30" height="12" rx="6" fill="#fee2e2"/>
  <text x="159" y="254" fill="#dc2626" font-size="7" font-family="sans-serif">High</text>
  <rect x="132" y="270" width="150" height="55" rx="6" fill="#fff"/>
  <rect x="144" y="282" width="80" height="6" rx="3" fill="#cbd5e1"/>
  <rect x="144" y="294" width="50" height="6" rx="3" fill="#e2e8f0"/>
  <rect x="144" y="310" width="30" height="12" rx="6" fill="#dbeafe"/>
  <text x="159" y="319" fill="#2563eb" font-size="7" font-family="sans-serif">Low</text>
  <!-- Column: In Progress -->
  <rect x="312" y="105" width="175" height="240" rx="8" fill="#f1f5f9"/>
  <text x="327" y="128" fill="#64748b" font-size="11" font-weight="600" font-family="sans-serif">IN PROGRESS</text>
  <circle cx="462" cy="123" r="10" fill="#e2e8f0"/>
  <text x="462" y="127" text-anchor="middle" fill="#64748b" font-size="9" font-family="sans-serif">2</text>
  <rect x="324" y="140" width="150" height="55" rx="6" fill="#fff" stroke="#6366f1" stroke-width="1.5"/>
  <rect x="336" y="152" width="95" height="6" rx="3" fill="#cbd5e1"/>
  <rect x="336" y="164" width="65" height="6" rx="3" fill="#e2e8f0"/>
  <rect x="336" y="180" width="30" height="12" rx="6" fill="#fee2e2"/>
  <text x="351" y="189" fill="#dc2626" font-size="7" font-family="sans-serif">High</text>
  <rect x="324" y="205" width="150" height="55" rx="6" fill="#fff"/>
  <rect x="336" y="217" width="110" height="6" rx="3" fill="#cbd5e1"/>
  <rect x="336" y="229" width="75" height="6" rx="3" fill="#e2e8f0"/>
  <rect x="336" y="245" width="30" height="12" rx="6" fill="#fef3c7"/>
  <text x="351" y="254" fill="#d97706" font-size="7" font-family="sans-serif">Med</text>
  <!-- Column: Done -->
  <rect x="504" y="105" width="175" height="240" rx="8" fill="#f1f5f9"/>
  <text x="519" y="128" fill="#64748b" font-size="11" font-weight="600" font-family="sans-serif">DONE</text>
  <circle cx="654" cy="123" r="10" fill="#dcfce7"/>
  <text x="654" y="127" text-anchor="middle" fill="#16a34a" font-size="9" font-family="sans-serif">5</text>
  <rect x="516" y="140" width="150" height="45" rx="6" fill="#f0fdf4"/>
  <rect x="528" y="152" width="90" height="6" rx="3" fill="#86efac"/>
  <rect x="528" y="164" width="60" height="6" rx="3" fill="#bbf7d0"/>
  <rect x="516" y="195" width="150" height="45" rx="6" fill="#f0fdf4"/>
  <rect x="528" y="207" width="100" height="6" rx="3" fill="#86efac"/>
  <rect x="528" y="219" width="70" height="6" rx="3" fill="#bbf7d0"/>
  <rect x="516" y="250" width="150" height="45" rx="6" fill="#f0fdf4"/>
  <rect x="528" y="262" width="80" height="6" rx="3" fill="#86efac"/>
  <rect x="528" y="274" width="55" height="6" rx="3" fill="#bbf7d0"/>
  <!-- Floating elements -->
  <circle cx="60" cy="100" r="18" fill="#fff" opacity="0.12"/>
  <circle cx="750" cy="320" r="25" fill="#fff" opacity="0.1"/>
</svg>
